<?xml version="1.0" encoding="utf-8"?>
<!-- Generator: Adobe Illustrator 27.9.0, SVG Export Plug-In . SVG Version: 6.00 Build 0)  -->
<svg version="1.2" baseProfile="tiny" id="g-compare_emotions2-Artboard_1-interactions-img" xmlns="http://www.w3.org/2000/svg" xmlns:xlink="http://www.w3.org/1999/xlink"
	 x="0px" y="0px" viewBox="0 0 1158.53 845.192" overflow="visible" xml:space="preserve">
<g>
	<g id="ava_x5F_happiness_00000165937692096339230430000004907871211564415892_">
		
			<path id="happiness_00000149348539475967168510000005240480610988143747_" fill="none" stroke="#FCF4A6" stroke-width="2" stroke-linecap="round" stroke-linejoin="round" d="
			M408.066,547.55l2.679,4.235l2.679-6.07l2.679,4.054l2.679-0.242l2.679-3.933l2.679,1.492l2.679-3.267l2.679,8.047l2.679,3.771
			l2.679-6.312l2.679,10.971l2.679,3.106l2.679,7.038l2.679-12.685l2.679,18.574l2.679,8.914l2.679,5.97l2.679,4.598l2.679-2.339
			l2.679,0.988l2.679,0.686l2.679,4.739l2.679-17.304l2.679,9.741l2.679-15.489l2.679-7.724l2.679-18.393l2.679,9.822l2.679-3.045
			l2.679-8.591l2.679-9.62l2.679-8.027l2.679-10.87l2.679-1.412l2.679,2.864l2.679,1.311l2.679-9.64l2.679-8.793l2.679-10.709
			l2.679-0.141l2.679-5.385l2.679,15.67l2.679,21.418l2.679,13.27l2.679-12.141l2.679-17.767l2.679,3.348l2.679-16.82l2.679,10.326
			l2.679,27.952l2.679,34.668l2.679-6.655l2.679-3.509l2.679-22.003l2.679,7.401l2.679,4.215l2.679,3.892l2.679-1.492l2.679,3.872
			l2.679-19.905l2.679-36.463l2.679-17.122l2.679,2.279l2.679,11.596l2.679-5.062l2.679,4.154l2.679,9.499l2.679,26.339l2.679-8.773
			l2.679,22.951l2.679,11.596l2.679,16.658l2.679-4.78l2.679-5.163l2.679,1.573l2.679-15.65l2.679,6.837l2.679-8.995l2.679,5.99
			l2.679-11.233l2.679,4.618l2.679-1.795l2.679,1.049l2.679,20.046l2.679,17.848l2.679,13.109l2.679-8.087l2.679-0.424l2.679-4.659
			l2.679-2.339l2.679-2.682l2.679-2.723l2.679-3.529l2.679-24.06l2.679-17.142l2.679-4.154l2.679,2.077l2.679,21.075l2.679,12.342
			l2.679,4.215l2.679-34.385l2.679-7.724l2.679,6.696l2.679,9.378l2.679,5.566l2.679,11.858l2.679,2.46l2.679-5.405l2.679,0.424
			l2.679-23.071l2.679,16.336l2.679,6.07l2.679,30.634l2.679,3.771l2.679,1.734l2.679-0.605l2.679,2.319l2.679-2.239l2.679-12.06
			l2.679,11.253l2.679,17.505l2.679,26.399l2.679-30.775l2.679-5.062l2.679-9.358l2.679-5.768l2.679,1.392l2.679-9.196l2.679-4.497
			l2.679,7.603l2.679-4.901l2.679,2.36l2.679,16.174l2.679,18.796l2.679-12.786l2.679,23.999l2.679,8.854l2.679-9.116l2.679,29.666
			l2.679-7.825l2.679,13.754l2.679-28.597l2.679-22.285l2.679-19.643l2.679,11.697l2.679-29.081l2.679-3.912l2.679,7.583
			l2.679-23.818l2.679,12.1l2.679-6.978l2.679,3.832l2.679,5.687l2.679-4.901l2.679,5.405l2.679,26.137l2.679-15.428l2.679-0.908
			l2.679-2.057l2.679-10.124l2.679,0.02l2.679,5.002l2.679,7.623l2.679,33.518l2.679,8.652l2.679-17.223l2.679,10.306l2.679,4.618
			l2.679,0.262l2.679,20.752l2.679-52.536l2.679-1.694l2.679-15.912l2.679-24.161l2.679,4.054l2.679,13.593l2.679,9.358l2.679-0.323
			l2.679,5.304l2.679-15.993l2.679,44.046l2.679-0.666l2.679,2.4l2.679-5.728"/>
	</g>
	<g id="ava_x5F_sadness_00000034775511875421959860000015734851029666296718_">
		
			<path id="sadness_00000183933351253789388990000015119856408996357040_" fill="none" stroke="#14A0CC" stroke-width="2" stroke-linecap="round" stroke-linejoin="round" d="
			M408.066,588.147l2.679,12.927l2.679-6.837l2.679,6.292l2.679-3.086l2.679,2.259l2.679-4.376l2.679-14.48l2.679,8.894
			l2.679,23.959l2.679-6.433l2.679-9.64l2.679-4.558l2.679,13.25l2.679-19.179l2.679,6.433l2.679-24.12l2.679,20.611l2.679,0.827
			l2.679-48.805l2.679-23.374l2.679,0.787l2.679,2.702l2.679-8.692l2.679,10.931l2.679-3.771l2.679,22.729l2.679-13.25l2.679,3.63
			l2.679,36.463l2.679,11.677l2.679-29.606l2.679,3.872l2.679-6.01l2.679,8.006l2.679,8.591l2.679-4.699l2.679-0.141l2.679,7.321
			l2.679-9.176l2.679,6.655l2.679,34.869l2.679-11.475l2.679-13.23l2.679,11.274l2.679,1.613l2.679-10.568l2.679,13.29l2.679,8.006
			l2.679,12.1l2.679,18.877l2.679,29.364l2.679,10.931l2.679,12.403l2.679,3.065l2.679,4.961l2.679,2.581l2.679-1.472l2.679-6.433
			l2.679,3.65l2.679-20.934l2.679-38.379l2.679-15.287l2.679-11.596l2.679-7.22l2.679-15.327l2.679,4.376l2.679-11.879l2.679-5.344
			l2.679-30.009l2.679,27.69l2.679-3.892l2.679,19.643l2.679,9.156l2.679-5.344l2.679-4.114l2.679-4.739l2.679,10.568l2.679-12.201
			l2.679,3.126l2.679-15.892l2.679,14.137l2.679-8.289l2.679-3.287l2.679-13.089l2.679,8.853l2.679,3.67l2.679-8.41l2.679,15.005
			l2.679,12.04h2.679l2.679-6.333l2.679-0.786l2.679,1.008l2.679,13.008l2.679-54.492l2.679-6.756l2.679-3.872l2.679,6.474
			l2.679,3.065l2.679-6.413l2.679-11.314l2.679-11.737l2.679,5.647l2.679,22.789l2.679,49.007l2.679,0.121l2.679,21.075
			l2.679-17.062l2.679,1.271l2.679-11.314l2.679-30.412l2.679-2.218l2.679,9.822l2.679-26.318l2.679,11.697l2.679,9.035l2.679-4.719
			l2.679,30.029l2.679-14.742l2.679,12.645l2.679,46.768l2.679,38.419l2.679-17.304l2.679,20.853l2.679-19.139l2.679,6.312
			l2.679,2.662l2.679-22.527l2.679-1.956l2.679,23.636l2.679-12.907l2.679-32.55l2.679,31.078l2.679,13.734l2.679-0.182
			l2.679-16.759l2.679,19.099l2.679,4.88l2.679,45.397l2.679-19.361l2.679,14.823l2.679-28.134l2.679-27.508l2.679-20.994
			l2.679,16.759l2.679,12.867l2.679-24.221l2.679,6.393l2.679-33.498l2.679,6.333l2.679,3.065l2.679,52.334l2.679,6.07l2.679-0.363
			l2.679-10.669l2.679,31.522l2.679-15.589l2.679,0.262l2.679,0.464l2.679-7.159l2.679-6.837l2.679-7.341l2.679-3.771l2.679,14.379
			l2.679,5.687l2.679-34.224l2.679,6.393l2.679-6.554l2.679-1.896l2.679,11.374l2.679-27.347l2.679-3.691l2.679-16.678l2.679-14.904
			l2.679,4.255l2.679,10.306l2.679-1.795l2.679-4.639l2.679,12.464l2.679-16.961l2.679,14.964l2.679-9.136l2.679,6.393l2.679-18.917
			"/>
	</g>
	<g id="ava_x5F_fear_00000005975280142639993010000009767855563856820643_">
		
			<path id="fear_00000169528961064599836840000017832450268565660802_" fill="none" stroke="#018F76" stroke-width="2" stroke-linecap="round" stroke-linejoin="round" d="
			M408.066,487.108l2.679-27.992l2.679,6.514l2.679,18.877l2.679,22.608l2.679,50.6l2.679-25.673l2.679-16.255l2.679-1.876
			l2.679-31.34l2.679-2.642l2.679,20.147l2.679-12.484l2.679,6.333l2.679,6.575l2.679,9.539l2.679,48.402l2.679,34.486l2.679,12.1
			l2.679,23.797l2.679,0.141l2.679,8.753l2.679,21.539l2.679-14.884l2.679-14.258l2.679-33.196l2.679-2.198l2.679-32.55l2.679,0.02
			l2.679-6.675l2.679,5.445l2.679-16.92l2.679-25.189l2.679,2.965l2.679,16.779l2.679,21.256l2.679-1.593l2.679,2.017l2.679-18.13
			l2.679,18.554l2.679,9.237l2.679,11.395l2.679,16.235l2.679,12.181l2.679,7.24l2.679-11.838l2.679-0.081l2.679,35.535
			l2.679,23.435l2.679-1.976l2.679-27.448l2.679,46.183l2.679-3.751l2.679-4.82l2.679-23.293l2.679,8.773l2.679-37.753l2.679-29.364
			l2.679-61.47l2.679-23.414l2.679,6.373l2.679-46.889l2.679,3.993l2.679,6.01l2.679,14.541l2.679,26.359l2.679,25.189l2.679-6.857
			l2.679,42.715l2.679,13.552l2.679,9.257l2.679,11.233l2.679-28.033l2.679,8.732l2.679,3.953l2.679-44.953l2.679,8.712l2.679,2.622
			l2.679,16.154l2.679-56.065l2.679-32.147l2.679-6.877l2.679,28.335l2.679-14.621l2.679-38.802l2.679,29.828l2.679-5.123
			l2.679,6.716l2.679-2.904l2.679,68.952l2.679,44.731l2.679-3.812l2.679,1.755l2.679,5.929l2.679,24.04l2.679-21.337l2.679,2.057
			l2.679-4.82l2.679-5.203l2.679-16.174l2.679-21.398l2.679-47.071l2.679-15.791l2.679-15.206l2.679-27.408l2.679,4.679l2.679,9.317
			l2.679,1.654l2.679-22.991l2.679,17.283l2.679-15.468l2.679,12.806l2.679,41.404l2.679,60.381l2.679,21.7l2.679,2.198l2.679-4.437
			l2.679-9.902l2.679,36.987l2.679-9.62l2.679,40.335l2.679,41.747l2.679-9.217l2.679-45.84l2.679,23.677l2.679-6.575l2.679-7.805
			l2.679,22.708l2.679-16.699l2.679,14.42l2.679-41.303l2.679-13.068l2.679,4.638l2.679-38.6l2.679,4.518l2.679,18.937l2.679,27.428
			l2.679,10.669l2.679,2.339l2.679-26.52l2.679,32.974l2.679,8.148l2.679-3.509l2.679,34.607l2.679-2.299l2.679-8.551l2.679-39.306
			l2.679-23.636l2.679,0.928l2.679,17.344l2.679,2.138l2.679-42.432l2.679-18.574l2.679-8.995l2.679-28.9l2.679-9.257l2.679,32.691
			l2.679-5.889l2.679-16.638l2.679,3.267l2.679,3.933l2.679,39.145l2.679-18.977l2.679,12.705l2.679-2.097l2.679,1.331l2.679-26.339
			l2.679,20.692l2.679,11.455l2.679-19.724l2.679-1.15l2.679-47.373l2.679,25.552l2.679-15.569l2.679,11.838l2.679,12.282
			l2.679,14.218l2.679,7.825l2.679,9.257l2.679,10.628l2.679-7.764l2.679,44.368l2.679,8.188l2.679,6.837l2.679,10.245"/>
	</g>
	<g id="ava_x5F_surprise_00000088090831508320067930000005964439211727908007_">
		
			<path id="surprise_00000011721152130378231700000008643649699853501066_" fill="none" stroke="#9D61A7" stroke-width="2" stroke-linecap="round" stroke-linejoin="round" d="
			M408.066,581.249l2.679-16.638l2.679,22.85l2.679,22.829l2.679,17.404l2.679,26.661l2.679,3.65l2.679-8.874l2.679,24.302
			l2.679,6.151l2.679-6.615l2.679,7.865l2.679-4.235l2.679,0.908l2.679-29.949l2.679-9.055l2.679-1.916l2.679,10.406l2.679,18.736
			l2.679-17.788l2.679-9.398l2.679-8.49l2.679,10.608l2.679,1.876l2.679-40.355l2.679-2.259l2.679,12.786l2.679,6.393l2.679-18.13
			l2.679-5.324l2.679,8.47l2.679-20.147l2.679-9.741l2.679-7.885l2.679,62.942l2.679,9.156l2.679-24.745l2.679,2.118l2.679,3.691
			l2.679,38.56l2.679-6.595l2.679,13.29l2.679-7.442l2.679-4.639l2.679,12.464l2.679,8.349l2.679,31.985l2.679,2.097l2.679,17.001
			l2.679-7.2l2.679-5.889l2.679-0.161l2.679,11.758l2.679,10.245l2.679-8.692l2.679-29.202l2.679-22.87l2.679-14.339l2.679-32.369
			l2.679-25.29l2.679,9.721l2.679,13.29l2.679-12.685l2.679-17.021l2.679,4.074l2.679,28.013l2.679,27.206l2.679-9.68l2.679,16.094
			l2.679,16.739l2.679,3.731l2.679-11.798l2.679-2.823l2.679,20.067l2.679,4.013l2.679-13.653l2.679-4.981l2.679,9.156l2.679-13.109
			l2.679-39.125l2.679-11.576l2.679,1.936l2.679,2.4l2.679-17.062l2.679-39.367l2.679,10.225l2.679-6.696l2.679,12.342l2.679,8.45
			l2.679,44.227l2.679,27.186l2.679,21.458l2.679-5.647l2.679-4.739l2.679,28.113l2.679-88.656l2.679,4.074l2.679-19.583
			l2.679-2.622l2.679-2.622l2.679-33.155l2.679-22.87l2.679-15.831l2.679,14.178l2.679,12.564l2.679,71.735l2.679-51.992
			l2.679,2.783l2.679-3.227l2.679,4.235l2.679,9.418l2.679-6.796l2.679,34.164l2.679,0.02l2.679-10.386l2.679,17.263l2.679,55.783
			l2.679,9.237l2.679,12.262l2.679-10.225l2.679,15.347l2.679,12.584l2.679-0.908l2.679-7.442l2.679,24.665l2.679-4.659l2.679-3.186
			l2.679,9.66l2.679-3.368l2.679-1.714l2.679-2.783l2.679,7.422l2.679-39.528l2.679-54.21l2.679-1.573l2.679,10.507l2.679-37.108
			l2.679,6.978l2.679-6.091l2.679-11.979l2.679-11.899l2.679-13.916l2.679,3.126l2.679,67.178l2.679,1.573l2.679,1.15l2.679,38.963
			l2.679-11.092l2.679,19.704l2.679,15.61l2.679,10.245l2.679-2.965l2.679,24.907l2.679-9.68l2.679-18.211l2.679-6.655l2.679,17.243
			l2.679-4.417l2.679-6.877l2.679,6.696l2.679,10.729l2.679,25.411l2.679,4.598l2.679,1.775l2.679-3.912l2.679-6.292l2.679-19.643
			l2.679,4.901l2.679,1.835l2.679-10.225l2.679-3.791l2.679-23.636l2.679,16.396l2.679-1.008l2.679,9.62l2.679,18.635l2.679-1.21
			l2.679,1.008l2.679,3.529l2.679,2.864l2.679-7.865l2.679,0.867l2.679-5.143l2.679-1.714l2.679-0.625"/>
	</g>
	<g id="ava_x5F_anger_00000040538467553866198490000004934999422576996761_">
		
			<path id="anger_00000140010800400206692690000004762312682044944792_" fill="none" stroke="#C62127" stroke-width="2" stroke-linecap="round" stroke-linejoin="round" d="
			M408.066,594.217l2.679,2.198l2.679,6.696l2.679,27.649l2.679,29.908l2.679,16.275l2.679,4.356l2.679-14.984l2.679,4.618
			l2.679,30.493l2.679-8.369l2.679-7.22l2.679-9.116l2.679,11.596l2.679-13.875l2.679-2.622l2.679-14.379l2.679-2.178l2.679-5.768
			l2.679-53.524l2.679-14.823l2.679,4.699l2.679,8.127l2.679-4.558l2.679-22.144l2.679-4.396l2.679,20.934l2.679,10.83l2.679-1.976
			l2.679,36.947l2.679,3.509l2.679-22.144l2.679-1.069l2.679-9.237l2.679,34.547l2.679,7.643l2.679-26.44l2.679,3.912l2.679,10.467
			l2.679-7.301l2.679,5.163l2.679,27.629l2.679-11.052l2.679-8.087l2.679,4.497l2.679,9.297l2.679,15.489l2.679-0.565l2.679,12.584
			l2.679,13.371l2.679,24.04l2.679,12.645l2.679,4.659l2.679-0.141l2.679-1.472l2.679,10.023l2.679-17.546l2.679,1.553l2.679-29.223
			l2.679-15.126l2.679-29.182l2.679-17.284l2.679-6.897l2.679,3.449l2.679-2.4l2.679-8.349l2.679,10.911l2.679-20.712l2.679,20.551
			l2.679-10.245l2.679,39.649l2.679-8.611l2.679,18.171l2.679,18.352l2.679-3.065l2.679-16.84l2.679-4.094l2.679,19.058
			l2.679-10.608l2.679-14.42l2.679-15.71l2.679,9.559l2.679-9.64l2.679-22.406l2.679-6.857l2.679,11.838l2.679-6.373l2.679-4.497
			l2.679,3.025l2.679,21.861l2.679,7.885l2.679,1.553l2.679-4.639l2.679-2.4l2.679,4.296l2.679-70.828l2.679-7.623l2.679-5.869
			l2.679,10.245l2.679,9.035l2.679-14.258l2.679-10.669l2.679-1.876l2.679,13.371l2.679,25.471l2.679,65.988l2.679-3.731
			l2.679,7.623l2.679-33.276l2.679,4.941l2.679-5.647l2.679-1.23l2.679-0.484l2.679,27.891l2.679-27.387l2.679,4.336l2.679,24.161
			l2.679,8.571l2.679,36.967l2.679-23.596l2.679,12.181l2.679,14.702l2.679,21.68l2.679-33.599l2.679,18.978l2.679-26.883
			l2.679,5.163l2.679-3.872l2.679-4.195l2.679-1.008l2.679,22.325l2.679-39.105l2.679-19.643l2.679-3.933l2.679,1.613l2.679,24.947
			l2.679-18.978l2.679,20.369l2.679-3.307l2.679,20.43l2.679-22.305l2.679,45.961l2.679-34.627l2.679,18.695l2.679-2.662
			l2.679,2.299l2.679,9.237l2.679-19.724l2.679,8.511l2.679-14.682l2.679,1.291l2.679-4.82l2.679,47.676l2.679,2.36l2.679-6.877
			l2.679-11.253l2.679,37.612l2.679-16.598l2.679-2.44l2.679,4.88l2.679-1.593l2.679,0.081l2.679,4.961l2.679-7.26l2.679-8.208
			l2.679,9.116l2.679-28.678l2.679,4.276l2.679-11.173l2.679-3.993l2.679,19.522l2.679-36.079l2.679-0.565l2.679-18.998l2.679,2.682
			l2.679-4.78l2.679-19.683l2.679-11.899l2.679,0.605l2.679,18.615l2.679-33.76l2.679,22.587l2.679-8.067l2.679,1.17l2.679-10.951"
			/>
	</g>
	<g id="caleb_x5F_happiness_00000166669585567245360620000013299532013855255706_">
		
			<path id="happiness_00000142887856967288410410000009607519090896272570_" fill="none" stroke="#FCF4A6" stroke-width="2" stroke-linecap="round" stroke-linejoin="round" d="
			M409.362,195.431l3.399,2.449l3.399,9.78l3.399-6.141l3.399-11.271l3.399,1.029l3.399,16.063l3.399-9.638l3.399,20.696
			l3.399,1.083l3.399,8.786l3.399,8.253l3.399-12.371l3.399,7.881l3.399-14.448l3.399-0.355l3.399-11.466l3.399,9.975l3.399-24.743
			l3.399-7.277l3.399-9.957l3.399-9.105l3.399,3.905l3.399,1.242l3.399-9.389l3.399-6.709l3.399,19.027l3.399-10.295l3.399-2.343
			l3.399,4.863l3.399-2.201l3.399-2.219l3.399,21.441l3.399-4.118l3.399,7.118l3.399,13.685l3.399-21.512l3.399,32.055l3.399,7.952
			l3.399,4.615l3.399,0.852l3.399,4.331l3.399-23.127l3.399,6.496l3.399,14.501l3.399,3.23l3.399,8.484l3.399,2.023l3.399-1.278
			l3.399-11.431l3.399,1.296l3.399,22.577l3.399,7.348l3.399-10.259l3.399,3.656l3.399-10.312l3.399,9.993l3.399-5.218l3.399,0.124
			l3.399,11.786l3.399-4.686l3.399-29.091l3.399-5.094l3.399-2.911l3.399-7.419l3.399,15.868l3.399-6.195l3.399-58.768l3.399,0.319
			l3.399-3.461l3.399,15.85l3.399,15.637l3.399-5.414l3.399-4.775l3.399,4.189l3.399-15.637l3.399-25.275l3.399,45.829l3.399-7.544
			l3.399,5.041l3.399-4.508l3.399-3.088l3.399-2.094l3.399,29.358l3.399-13.259l3.399-1.899l3.399,13.064l3.399-5.68l3.399,9.336
			l3.399,4.526l3.399,0.976l3.399-8.768l3.399,11.519l3.399-22.506l3.399,28.577l3.399-12.354l3.399,15.353l3.399,3.23l3.399-0.284
			l3.399-14.235l3.399-19.169l3.399,9.886l3.399-9.691l3.399,12.371l3.399-20.146l3.399,26.021l3.399,6.798l3.399,5.272l3.399-4.473
			l3.399,11.768l3.399,8.271l3.399-2.094l3.399,0.568l3.399-10.543l3.399-3.94h3.399l3.399-45.084l3.399,3.035l3.399-20.181
			l3.399-10.721l3.399-0.887l3.399-3.568l3.399,2.875l3.399,8.892l3.399,6.656l3.399-11.2l3.399,25.133l3.399-2.769l3.399,34.114
			l3.399,12.371l3.399,9.833l3.399-1.988l3.399,5.556l3.399,5.556l3.399-2.023l3.399,8.857l3.399-9.265l3.399-1.722l3.399-15.318
			l3.399-18.992l3.399-18.388l3.399,11.537l3.399-2.964l3.399,0.248l3.399-13.028l3.399,1.455"/>
	</g>
	<g id="caleb_x5F_sadness_00000029756202454973021500000001095990986747575741_">
		
			<path id="sadness_00000034781545225274599950000009533631318431288222_" fill="none" stroke="#14A0CC" stroke-width="2" stroke-linecap="round" stroke-linejoin="round" d="
			M409.362,233.61l3.399,1.597l3.399,8.892l3.399-14.377l3.399,0.177l3.399-7.402l3.399,10.383l3.399,3.656l3.399,16.507
			l3.399-5.396l3.399,16.454l3.399,2.236l3.399-21.637l3.399,18.033l3.399-8.165l3.399-0.639l3.399-43.362l3.399-2.201l3.399-27.955
			l3.399,11.413l3.399-18.903l3.399-8.431l3.399,13.951l3.399,2.414l3.399-1.562l3.399,9.744l3.399,58.626l3.399-3.621l3.399,11.519
			l3.399-4.739l3.399,7.171l3.399,11.768l3.399,20.341l3.399-4.863l3.399,3.461l3.399,15.744l3.399-18.069l3.399,14.395l3.399-6.958
			l3.399,1.349l3.399-6.816l3.399-11.076l3.399-25.24l3.399,6.372l3.399,16.099l3.399-29.251l3.399-20.696l3.399,19.116l3.399-0.444
			l3.399-15.974l3.399,1.597l3.399,11.519l3.399-4.331l3.399-31.967l3.399-12.105l3.399,0.515l3.399,19.24l3.399-2.662l3.399,9.78
			l3.399,18.69l3.399,6.887l3.399-16.897l3.399,7.987l3.399,9.744l3.399,3.372l3.399,18.797l3.399,2.698l3.399-78.506l3.399,14.359
			l3.399-7.118l3.399,3.106l3.399,12.993l3.399-3.213l3.399-2.183l3.399-16.897l3.399-5.343l3.399-6.993l3.399,61.91l3.399-62.922
			l3.399-1.331l3.399,0.408l3.399,8.324l3.399-8.395l3.399,20.004l3.399,12.442l3.399-4.917l3.399-7.934l3.399-6.035l3.399,47.568
			l3.399-3.887l3.399-9.176l3.399-40.682l3.399,4.988l3.399-16.205l3.399,18.53l3.399-15.779l3.399,30.44l3.399-2.13l3.399,5.946
			l3.399,3.195l3.399-9.478l3.399,19.649l3.399-19.489l3.399-21.335l3.399-28.044l3.399,10.774l3.399-37.008l3.399-5.84
			l3.399-22.897l3.399,4.42l3.399,22.95l3.399,13.596l3.399,12.833l3.399,31.363l3.399,10.632l3.399,1.012l3.399-27.867
			l3.399,14.626l3.399-11.928l3.399,4.313l3.399,3.71l3.399-0.266l3.399,2.52l3.399,7.597l3.399,4.011l3.399,2.165l3.399,56.177
			l3.399-6.124l3.399,27.742l3.399,0.603l3.399-13.88l3.399,2.485l3.399-3.159l3.399,0.089l3.399,1.509l3.399,14.697l3.399-23.092
			l3.399-2.112l3.399-1.42l3.399-11.537l3.399-10.703l3.399,4.42l3.399,8.875l3.399,4.384l3.399-9.105l3.399-7.1"/>
	</g>
	<g id="caleb_x5F_fear_00000042702963794723247590000001120580756334874558_">
		
			<path id="fear_00000009574887081001006960000002666842427121826194_" fill="none" stroke="#018F76" stroke-width="2" stroke-linecap="round" stroke-linejoin="round" d="
			M409.362,165.523l3.399-10.792l3.399-25.861l3.399,10.969l3.399-11.271l3.399,18.051l3.399,2.165l3.399,25.275l3.399,20.501
			l3.399,6.745l3.399,22.347l3.399,3.603l3.399,20.891l3.399,5.751l3.399,6.976l3.399-1.225l3.399,11.502l3.399,5.538l3.399-17.27
			l3.399-15.832l3.399-17.199l3.399,2.041l3.399-4.455l3.399-24.033l3.399,0.586l3.399,9.389l3.399-18.317l3.399-3.887l3.399-9.851
			l3.399-3.781l3.399-19.418l3.399-1.615l3.399,28.541l3.399,19.755l3.399-15.052l3.399,1.988l3.399,13.152l3.399,22.737
			l3.399,1.029l3.399,20.856l3.399,16.116l3.399,18.761l3.399-12.283l3.399,2.485l3.399-1.651l3.399,6.159l3.399-15.371l3.399,8.04
			l3.399,1.864l3.399,0.319l3.399,5.467l3.399,12.496l3.399,3.159l3.399-16.312l3.399,21.53l3.399-16.738l3.399-7.313l3.399-24.778
			l3.399,1.083l3.399-6.763l3.399-12.087l3.399-35.765L620.1,168.7l3.399,16.205l3.399-4.313l3.399,7.473l3.399,9.975l3.399,13.951
			l3.399,23.997l3.399-7.118l3.399,0.657l3.399,23.198l3.399-26.393l3.399-3.39l3.399-16.099l3.399-25.772l3.399-3.55l3.399-38.215
			l3.399-35.783l3.399,18.69l3.399-11.005l3.399-39.404l3.399,27.725l3.399,8.165l3.399-9.851l3.399,23.731l3.399-3.124l3.399,9.869
			l3.399,12.336l3.399-11.59l3.399,19.045l3.399,18.53l3.399,21.548l3.399-20.181l3.399,27.618l3.399,1.864l3.399,10.845
			l3.399,22.045l3.399-0.55l3.399-6.088l3.399-6.94l3.399,19.276l3.399-12.141l3.399,1.597l3.399-17.093l3.399,11.626l3.399,13.436
			l3.399-29.89l3.399-17.11l3.399,7.1l3.399,9.833l3.399-11.928l3.399-42.599l3.399,12.265l3.399,18.708l3.399-31.132l3.399-30.139
			l3.399,28.08l3.399,12.354l3.399-7.845l3.399-34.718l3.399-8.466l3.399,47.107l3.399-24.53l3.399-21.406l3.399,14.466l3.399,9.336
			l3.399-28.062l3.399,3.639l3.399,15.992l3.399,41.906l3.399,18.814l3.399,3.177l3.399,33.83l3.399,11.413l3.399-8.804l3.399,0.586
			l3.399,28.026l3.399-12.868l3.399-16.578l3.399-24.441l3.399-0.213l3.399-0.408l3.399,3.621l3.399,2.325l3.399,16.649"/>
	</g>
	<g id="caleb_x5F_surprise_00000168086049904662470970000005586621866751493289_">
		
			<path id="surprise_00000152258665134525194240000006360855275671002786_" fill="none" stroke="#9D61A7" stroke-width="2" stroke-linecap="round" stroke-linejoin="round" d="
			M409.362,277.326l3.399,6.372l3.399,13.294l3.399-13.117l3.399-10.028l3.399-4.189l3.399-2.929l3.399,10.543l3.399,31.789
			l3.399-8.289l3.399-26.766l3.399-15.194l3.399,3.053l3.399,13.898l3.399-7.313l3.399,13.294l3.399-34.398l3.399,11.289
			l3.399-12.105l3.399,10.295l3.399,15.939l3.399-4.491l3.399,4.526l3.399,6.283l3.399,2.503l3.399-8.804l3.399,34.984l3.399-4.473
			l3.399-20.678l3.399-8.413l3.399-11.218l3.399,17.465l3.399,9.744l3.399-27.547l3.399-3.497l3.399,3.585l3.399-20.98l3.399-9.851
			l3.399,24.05l3.399,9.034l3.399,17.767l3.399,2.84l3.399-24.175l3.399,19.649l3.399,8.875l3.399-4.579l3.399,10.259l3.399-16.862
			l3.399-4.047l3.399,0.142l3.399,0.852l3.399,0.248l3.399,9.602l3.399,5.147l3.399,5.627l3.399,1.881l3.399,4.81l3.399,29.588
			l3.399-12.886l3.399-2.414l3.399-20.412l3.399-6.798L620.1,278.8l3.399,10.117l3.399-0.426l3.399,3.443l3.399-1.1l3.399-41.037
			l3.399,10.33l3.399-28.151l3.399-25.062l3.399,15.832l3.399,16.187l3.399-1.154l3.399-38.605l3.399,0.639l3.399-12.922
			l3.399,30.884l3.399-79.961l3.399,30.352l3.399,30.085l3.399-24.583l3.399-6.585l3.399,0.603l3.399,23.376l3.399,7.916
			l3.399,15.265l3.399,2.236l3.399,77.955l3.399-25.293l3.399,7.721l3.399-14.111l3.399,5.68l3.399-14.271l3.399,29.695l3.399-6.479
			l3.399-6.869l3.399,12.549l3.399,10.898l3.399,6.727l3.399-9.194l3.399,20.891l3.399-3.035l3.399-14.093l3.399-24.672
			l3.399,13.898l3.399,15.495l3.399-2.059l3.399-17.554l3.399,29.784l3.399,20.873l3.399,7.189l3.399,4.224l3.399,5.911
			l3.399,21.938l3.399-9.762l3.399-77.121l3.399-14.821l3.399-22.293l3.399-9.833l3.399-9.904l3.399-7.686l3.399,0.657l3.399,7.1
			l3.399-27.192l3.399-4.26l3.399,83.014l3.399-15.176l3.399,17.82l3.399-4.508l3.399-2.574l3.399,24.672l3.399,3.745l3.399,20.962
			l3.399,15.886l3.399,15.832l3.399-12.46l3.399,24.104l3.399,11.324l3.399-9.372l3.399,0.213l3.399-21.086l3.399-6.479l3.399-7.828
			l3.399-0.266l3.399-9.744"/>
	</g>
	<g id="caleb_x5F_anger_00000094608030376773167220000004813779722433505431_">
		
			<path id="anger_00000166634177741183603510000005639915089068594051_" fill="none" stroke="#C62127" stroke-width="2" stroke-linecap="round" stroke-linejoin="round" d="
			M409.362,255.406l3.399,7.526l3.399,22.4l3.399-9.602l3.399,2.538l3.399-5.786l3.399,5.005l3.399,10.277l3.399,27.991
			l3.399,21.885l3.399,15.69l3.399-3.159l3.399-23.642l3.399,13.774l3.399,10.419l3.399-0.834l3.399-41.267l3.399-14.004
			l3.399-41.711l3.399-6.514l3.399-18.104l3.399-6.958l3.399,15.619l3.399,10.135l3.399-28.772l3.399,9.23l3.399,68.726l3.399,3.603
			l3.399,4.1l3.399-3.816l3.399-5.325l3.399,7.792l3.399,20.483l3.399-6.017l3.399,10.738l3.399,21.299l3.399-26.589l3.399,15.726
			l3.399,12.336l3.399-1.207l3.399,0.781l3.399-12.265l3.399-44.782l3.399-2.503l3.399,15.052l3.399-36.28l3.399-12.797
			l3.399-11.999l3.399-14.164l3.399-3.23l3.399,5.094l3.399,11.022l3.399,16.063l3.399-6.106l3.399-12.744l3.399,3.124l3.399,1.225
			l3.399,36.67l3.399,15.389l3.399,11.963l3.399,3.159l3.399-17.501l3.399,8.715l3.399-6.496l3.399,8.697l3.399,17.661l3.399,14.732
			l3.399-71.104l3.399,6.088l3.399-15.247l3.399-1.242l3.399,31.186l3.399-3.656l3.399-4.171l3.399-1.988l3.399-8.218l3.399-13.206
			l3.399,45.9l3.399-68.477l3.399-6.745l3.399,4.1l3.399-9.194l3.399-8.555l3.399,33.12l3.399-13.685l3.399,6.266l3.399-4.1
			l3.399,0.834l3.399,58.893l3.399-9.957l3.399-30.085l3.399-41.214l3.399,5.573l3.399-40.415l3.399,33.724l3.399-24.867
			l3.399,39.244l3.399-7.916l3.399,3.887l3.399,14.59l3.399,12.389l3.399,30.121l3.399-9.141l3.399,7.65l3.399-35.375l3.399,13.543
			l3.399-39.404l3.399,1.952l3.399-18.513l3.399,1.757l3.399,17.856l3.399,1.757l3.399,7.189l3.399,15.371l3.399,17.164
			l3.399,36.741l3.399-16.933l3.399,4.295l3.399-7.153l3.399,14.839l3.399,11.111l3.399,7.828l3.399-14.111l3.399,0.071l3.399-2.591
			l3.399-40.948l3.399,44.604l3.399,9.46l3.399,18.335l3.399,3.266l3.399-17.519l3.399,8.307l3.399,7.224l3.399,9.265l3.399,2.52
			l3.399-0.408l3.399-22.453l3.399-15.957l3.399,5.786l3.399-16.01l3.399-13.01l3.399-0.355l3.399,9.336l3.399,2.378l3.399-14.022
			l3.399,8.608"/>
	</g>
</g>
<style>
#g-compare_emotions2-Artboard_1-interactions-img rect, #g-compare_emotions2-Artboard_1-interactions-img circle, #g-compare_emotions2-Artboard_1-interactions-img path, #g-compare_emotions2-Artboard_1-interactions-img line, #g-compare_emotions2-Artboard_1-interactions-img polyline, #g-compare_emotions2-Artboard_1-interactions-img polygon { vector-effect: non-scaling-stroke; }
</style>
</svg>

